<svg xmlns="http://www.w3.org/2000/svg" width="128" height="128" viewBox="0 0 128 128">
  <defs>
    <linearGradient id="screen" x1="26" y1="24" x2="100" y2="96" gradientUnits="userSpaceOnUse">
      <stop offset="0" stop-color="#1d4ed8"/>
      <stop offset="1" stop-color="#0f766e"/>
    </linearGradient>
    <linearGradient id="panel" x1="34" y1="34" x2="94" y2="80" gradientUnits="userSpaceOnUse">
      <stop offset="0" stop-color="#eff6ff"/>
      <stop offset="1" stop-color="#dff7ef"/>
    </linearGradient>
  </defs>

  <rect x="15" y="18" width="98" height="76" rx="17" fill="#d8e2f0"/>
  <rect x="19" y="16" width="90" height="72" rx="14" fill="url(#screen)"/>
  <rect x="29" y="27" width="70" height="48" rx="8" fill="url(#panel)"/>

  <path d="M44 52h30" fill="none" stroke="#2563eb" stroke-width="8" stroke-linecap="round"/>
  <path d="M66 39l17 13-17 13" fill="none" stroke="#2563eb" stroke-width="8" stroke-linecap="round" stroke-linejoin="round"/>

  <circle cx="31" cy="88" r="8" fill="#22c55e"/>
  <circle cx="97" cy="88" r="8" fill="#22c55e"/>
  <circle cx="64" cy="104" r="8" fill="#2563eb"/>
  <path d="M38 91l18 9M90 91l-18 9" fill="none" stroke="#64748b" stroke-width="4" stroke-linecap="round"/>

  <rect x="53" y="88" width="22" height="8" rx="3" fill="#1e293b"/>
  <rect x="38" y="96" width="52" height="10" rx="5" fill="#1e293b"/>
</svg>
